<?xml version="1.0" ?><svg id="flat" viewBox="0 0 64 64" xmlns="http://www.w3.org/2000/svg"><defs><style>.cls-1{fill:#4398d1;}.cls-2{fill:#e5e5e5;}.cls-3{fill:#c7c7c7;}.cls-4{fill:none;}.cls-5{fill:#3e8cc7;}</style></defs><title/><path class="cls-1" d="M48.27,25.74,50.11,17H43.67l-.79,4.73a23,23,0,0,0-21.76,0L20.33,17H13.89l1.84,8.74A23,23,0,0,0,19,61H45a23,23,0,0,0,3.31-35.26Z"/><path class="cls-2" d="M19.78,13.66A4,4,0,0,1,23.72,9H40.28a4,4,0,0,1,3.94,4.66L43.67,17h6.44l.43-2a9.94,9.94,0,0,0-2-8.29h0A9.91,9.91,0,0,0,40.83,3H23.17a9.91,9.91,0,0,0-7.7,3.67h0a9.94,9.94,0,0,0-2,8.29l.43,2h6.44Z"/><path class="cls-3" d="M23,41H21A11,11,0,0,1,32,30v2A9,9,0,0,0,23,41Z"/><path class="cls-4" d="M23.53,46.29A10,10,0,1,0,39.09,34,59.93,59.93,0,0,1,23.53,46.29Z"/><path class="cls-4" d="M32,31a10,10,0,0,0-8.47,15.29A59.93,59.93,0,0,0,39.09,34,10,10,0,0,0,32,31Z"/><path class="cls-5" d="M48.27,25.74,50.11,17H47.65a36.62,36.62,0,0,1-8.56,17A10,10,0,1,1,23.53,46.29a91.82,91.82,0,0,1-12.21,5.77A23.11,23.11,0,0,0,19,61H45a23,23,0,0,0,3.31-35.26Z"/><path class="cls-3" d="M32,52V50a9,9,0,0,0,9-9h2A11,11,0,0,1,32,52Z"/></svg>